<?xml version="1.0" encoding="utf-8" standalone="no"?>
<!DOCTYPE svg PUBLIC "-//W3C//DTD SVG 1.1//EN" "http://www.w3.org/Graphics/SVG/1.1/DTD/svg11.dtd">
<svg width="500px" height="1000px" xmlns="http://www.w3.org/2000/svg">
  <g transform="scale(1.25,1.25) translate(60 -30)">
    <text x="20" y="60">Ilosc ksiazek w danej kategorii</text>
  </g>
  <g transform="scale(1.25,1.25) translate(0 50) rotate(-90 170 170)">
    <line x1="50" x2="340" y1="40" y2="40" stroke-width="1" stroke="black" />
    <line x1="50" x2="50" y1="40" y2="340" stroke-width="1" stroke="black" />
  </g>
  <g transform="scale(1.25,1.25) translate(0 0)">
    <text x="20" y="60">34</text>
    <text x="20" y="340">0</text>
  </g>
  <g transform="scale(1.25,1.25) translate(0 50) rotate(-90 170 170)">
    <text x="45" y="50" transform="rotate(90 40 50) translate(0 -150)">13</text>
    <rect x="50" y="50" height="20" width="130" fill="grey">
      <animate attributeName="width" attributeType="XML" dur="1s" values="0;130" repeatCount="1" />
    </rect>
    <text x="40" y="50" transform="rotate(135 40 50)">fantastyka</text>
    <text x="45" y="80" transform="rotate(90 40 80) translate(0 -80)">6</text>
    <rect x="50" y="80" height="20" width="60" fill="grey">
      <animate attributeName="width" attributeType="XML" dur="1s" values="0;60" repeatCount="1" />
    </rect>
    <text x="40" y="80" transform="rotate(135 40 80)">kryminał</text>
    <text x="45" y="110" transform="rotate(90 40 110) translate(0 -60)">4</text>
    <rect x="50" y="110" height="20" width="40" fill="grey">
      <animate attributeName="width" attributeType="XML" dur="1s" values="0;40" repeatCount="1" />
    </rect>
    <text x="40" y="110" transform="rotate(135 40 110)">horror</text>
    <text x="45" y="140" transform="rotate(90 40 140) translate(0 -50)">3</text>
    <rect x="50" y="140" height="20" width="30" fill="grey">
      <animate attributeName="width" attributeType="XML" dur="1s" values="0;30" repeatCount="1" />
    </rect>
    <text x="40" y="140" transform="rotate(135 40 140)">literatura_faktu</text>
    <text x="45" y="170" transform="rotate(90 40 170) translate(0 -50)">3</text>
    <rect x="50" y="170" height="20" width="30" fill="grey">
      <animate attributeName="width" attributeType="XML" dur="1s" values="0;30" repeatCount="1" />
    </rect>
    <text x="40" y="170" transform="rotate(135 40 170)">literatura_współczesna</text>
    <text x="45" y="200" transform="rotate(90 40 200) translate(0 -40)">2</text>
    <rect x="50" y="200" height="20" width="20" fill="grey">
      <animate attributeName="width" attributeType="XML" dur="1s" values="0;20" repeatCount="1" />
    </rect>
    <text x="40" y="200" transform="rotate(135 40 200)">romans</text>
    <text x="45" y="230" transform="rotate(90 40 230) translate(0 -30)">1</text>
    <rect x="50" y="230" height="20" width="10" fill="grey">
      <animate attributeName="width" attributeType="XML" dur="1s" values="0;10" repeatCount="1" />
    </rect>
    <text x="40" y="230" transform="rotate(135 40 230)">literatura_piękna</text>
    <text x="45" y="260" transform="rotate(90 40 260) translate(0 -30)">1</text>
    <rect x="50" y="260" height="20" width="10" fill="grey">
      <animate attributeName="width" attributeType="XML" dur="1s" values="0;10" repeatCount="1" />
    </rect>
    <text x="40" y="260" transform="rotate(135 40 260)">publicystyka</text>
    <text x="45" y="290" transform="rotate(90 40 290) translate(0 -30)">1</text>
    <rect x="50" y="290" height="20" width="10" fill="grey">
      <animate attributeName="width" attributeType="XML" dur="1s" values="0;10" repeatCount="1" />
    </rect>
    <text x="40" y="290" transform="rotate(135 40 290)">historyczna</text>
  </g>
</svg>